<?xml version="1.0" encoding="UTF-8" standalone="no"?>
<!-- Created with Inkscape (http://www.inkscape.org/) -->

<svg
   width="79.999977mm"
   height="79.999992mm"
   viewBox="0 0 79.999977 79.999992"
   version="1.1"
   id="svg1"
   xmlns:inkscape="http://www.inkscape.org/namespaces/inkscape"
   xmlns:sodipodi="http://sodipodi.sourceforge.net/DTD/sodipodi-0.dtd"
   xmlns="http://www.w3.org/2000/svg"
   xmlns:svg="http://www.w3.org/2000/svg">
  <sodipodi:namedview
     id="namedview1"
     pagecolor="#ffffff"
     bordercolor="#000000"
     borderopacity="0.25"
     inkscape:showpageshadow="2"
     inkscape:pageopacity="0.0"
     inkscape:pagecheckerboard="0"
     inkscape:deskcolor="#d1d1d1"
     inkscape:document-units="mm" />
  <defs
     id="defs1">
    <clipPath
       clipPathUnits="userSpaceOnUse"
       id="clipPath6671">
      <path
         id="path6671"
         style="fill:#ff0000;fill-opacity:1;fill-rule:nonzero;stroke:none;stroke-width:0.264583"
         d="m 183.62083,200.81875 v 24.87807 h 24.61401 v -24.87807 z m 12.59613,3.81217 c 1.04047,-0.0248 1.69352,0.36682 2.52801,1.31465 0.77959,1.02093 1.09079,2.24465 1.24231,3.49591 0.001,0.98743 0.0834,2.02483 -0.17415,2.99258 -0.0513,0.19271 -0.12951,0.37726 -0.19431,0.56586 -0.49106,1.0194 -1.41013,1.51231 -2.44532,1.82211 -0.65484,0.13787 -1.36872,0.27697 -2.03709,0.12867 -0.18337,-0.0407 -0.35863,-0.11153 -0.53795,-0.16743 -0.36123,-0.20566 -0.63705,-0.44686 -0.85008,-0.7183 -0.23773,-0.13634 -0.46139,-0.30227 -0.66869,-0.50333 -0.49913,-0.48408 -0.74056,-0.95093 -0.78755,-1.34359 -0.41607,-0.46057 -0.65322,-1.25676 -0.80977,-1.74304 -0.15733,-0.78078 -0.46972,-1.62755 -0.31988,-2.43861 0.0414,-0.22394 0.004,-0.54488 0.20567,-0.65113 0.51109,-0.26957 1.11143,-0.30232 1.68259,-0.41289 0.34359,-0.82717 0.88947,-1.61295 1.71927,-2.01383 0.21066,-0.10176 0.43866,-0.16367 0.65784,-0.24546 0.28833,-0.0483 0.549,-0.0764 0.7891,-0.0822 z" />
    </clipPath>
  </defs>
  <g
     inkscape:label="Warstwa 1"
     inkscape:groupmode="layer"
     id="layer1"
     transform="translate(-0.47248004,-0.14710686)">
    <g
       id="g6672"
       transform="translate(-63.943371,-147.52513)">
      <rect
         style="opacity:1;fill:#ffffff;fill-opacity:1;stroke:#000000;stroke-width:1.03959;stroke-miterlimit:0;stroke-dasharray:none;stroke-opacity:1"
         id="rect1"
         width="78.960396"
         height="78.960403"
         x="64.935646"
         y="148.19203"
         ry="0" />
      <path
         style="fill:#050505;stroke:none;stroke-width:0.76807"
         d="m 103.38132,201.56255 c -2.07357,0.27794 -4.130025,0.88319 -5.905245,2.02025 -6.56262,4.20357 -7.54172,13.91086 -2.01791,19.37232 2.95761,2.9242 7.159285,3.9215 11.181225,3.42927 1.52917,-0.18715 3.18353,-0.92407 4.47983,-1.72825 9.10123,-5.64612 6.92822,-19.63461 -3.25806,-22.54275 -1.42289,-0.40622 -2.99627,-0.74969 -4.47984,-0.55084 m -4.476695,5.74218 c 2.271095,-0.0576 3.246525,3.70359 5.291215,4.21126 1.95116,0.48444 4.51103,-6.16051 6.56861,-3.85102 1.99875,2.24346 -3.87933,4.47526 -3.87933,6.3855 0,1.6525 3.26808,3.20401 3.99387,4.6646 0.37853,0.76175 0.21377,1.8687 -0.78687,1.96986 -2.43041,0.24574 -3.38295,-4.22768 -5.69266,-4.22768 -1.51025,0 -2.99818,2.75583 -4.07256,3.63116 -0.619095,0.50438 -1.819305,1.01971 -2.406955,0.16118 -1.55481,-2.27151 3.904215,-4.26785 4.085785,-6.19912 0.1624,-1.72728 -3.365105,-3.23233 -4.085785,-4.66538 -0.4236,-0.8423 -0.11288,-2.05249 0.98468,-2.08036 z"
         id="path18" />
      <path
         style="fill:#050505;stroke:none;stroke-width:0.768965"
         d="m 75.996208,200.90601 c -1.72051,0.27142 -3.49364,1.00487 -4.92708,1.97213 -10.97187,7.40375 -3.99167,24.8391 9.23827,22.67428 1.65393,-0.27063 3.32331,-1.00089 4.72177,-1.88999 11.29516,-7.18106 4.14328,-24.83507 -9.03296,-22.75642 m 0.20529,3.19796 c 3.77621,-0.53444 7.52831,0.5561 9.73138,3.77049 3.74025,5.45721 0.48879,13.48206 -6.24137,14.43116 -4.22671,0.59605 -8.36504,-1.27089 -10.1982,-5.15609 -2.44766,-5.18757 0.73917,-12.2008 6.70819,-13.04556 m 0.4106,2.66446 c -8.21344,1.65418 -5.63629,14.78608 2.46353,13.09955 8.86197,-1.84521 6.4326,-14.89121 -2.46353,-13.09955"
         id="path17" />
      <path
         style="fill:#050505;stroke:none;stroke-width:0.768503"
         d="m 76.589088,150.29578 c -1.792338,0.31707 -3.648338,1.02991 -5.126312,2.08098 -10.595487,7.53518 -3.627262,24.81169 9.432436,22.50134 1.829488,-0.32366 3.59075,-1.00781 5.125524,-2.04257 10.861003,-7.32263 3.581438,-24.84185 -9.431648,-22.53975 m -4.448663,5.06908 c 0.872938,-0.37732 2.279963,-0.12162 3.21835,-0.12162 h 7.176862 c 0.93945,0 2.681088,-0.32751 3.362163,0.46735 0.624449,0.7288 0.328786,2.27406 0.328786,3.16194 v 7.86346 c 0,0.97706 0.325488,2.6446 -0.832249,3.10436 -0.915612,0.36362 -2.295187,0.12163 -3.2688,0.12163 h -7.176862 c -0.936487,0 -2.596487,0.3236 -3.274199,-0.46736 -0.67705,-0.79015 -0.416762,-2.20439 -0.416762,-3.16193 v -7.86344 c 0,-0.98855 -0.266038,-2.60785 0.882711,-3.10439 m 1.782975,2.49949 v 9.47648 h 9.84255 v -6.6537 l -0.21075,-2.49949 -2.454938,-0.32329 H 73.9234"
         id="path16" />
      <path
         style="fill:#050505;stroke:none;stroke-width:0.770138"
         d="m 130.15871,150.59437 c -1.94478,0.0694 -3.60712,0.39406 -5.33206,1.326 -2.9595,1.59891 -5.41964,4.22075 -6.40445,7.46195 -2.4613,8.10063 4.22985,16.56038 12.76191,16.18883 13.37624,-0.58249 15.97467,-18.76329 4.30667,-24.07835 -1.67038,-0.7609 -3.50615,-0.96358 -5.33207,-0.89843 m 0.41017,2.2744 c 1.46116,-0.0637 2.14251,2.06324 2.67187,3.07174 1.70579,3.2497 3.85027,6.27809 5.57624,9.51561 0.56559,1.06094 1.42389,3.11346 -0.45827,3.41183 -3.95418,0.62686 -8.49764,0.03 -12.50667,0.03 -1.07865,0 -3.42045,0.44816 -4.06471,-0.63736 -0.67034,-1.12944 0.42691,-2.66265 0.9909,-3.6143 1.75294,-2.95787 3.5773,-5.86247 5.17761,-8.90824 0.495,-0.9421 1.35445,-2.81432 2.61303,-2.86928 m -5.33207,13.3972 c 2.3296,0.67981 5.36622,0.20245 7.79302,0.20245 0.58632,0 2.06005,0.25498 2.43373,-0.32461 0.37517,-0.58192 -0.39567,-1.61636 -0.67506,-2.1049 -0.74107,-1.29591 -2.4736,-5.94507 -4.21962,-5.94507 -0.94152,0 -1.55575,1.20036 -1.92897,1.89587 -1.10865,2.0661 -2.58827,4.07843 -3.4031,6.27626"
         id="path14" />
      <path
         style="fill:#a83acd;fill-opacity:1;stroke:#d800a9;stroke-width:0;stroke-dasharray:none;stroke-opacity:1"
         d="m 96.816116,175.90957 c -6.43215,2.01666 -4.23467,12.71742 -4.23467,17.82456 0,1.71456 -0.59883,4.86441 0.46112,6.31279 1.0204,1.39433 3.84936,0.83321 5.36155,0.83321 h 12.174664 c 1.6259,0 4.01958,0.4408 5.54636,-0.1597 1.81292,-0.71303 1.33498,-3.33082 1.33498,-4.86896 v -11.64534 c 0,-1.53597 0.38014,-3.6679 -0.46113,-5.02866 -3.00061,-4.85356 -9.50906,-3.44067 -14.36021,-3.44067 -1.80283,0 -4.089354,-0.37068 -5.822664,0.17277 m 0.30387,0.78093 c 1.07535,-0.46951 2.7773,-0.1597 3.930794,-0.1597 h 8.46934 c 1.0818,0 3.24592,-0.39725 3.96264,0.6441 0.59543,0.86512 0.27202,2.59072 0.27202,3.59057 v 9.26333 c 0,1.09438 0.41968,3.26328 -0.83321,3.8103 -1.07535,0.46951 -2.77729,0.1597 -3.93079,0.1597 h -8.46933 c -0.992634,0 -3.256694,0.41143 -3.962654,-0.46112 -0.61654,-0.76204 -0.27202,-2.58835 -0.27202,-3.50888 v -9.528 c 0,-1.09438 -0.41967,-3.26328 0.83321,-3.8103 m -1.62721,1.4283 c 0,7.00248 1.16487,14.54042 -1.85267,20.90867 -0.63384,-1.51053 -0.26466,-3.66458 -0.26466,-5.29334 v -11.38066 c 7.4e-4,-1.92377 0.22688,-3.34503 2.11733,-4.23467 m 19.320674,0 c 2.25172,1.62544 1.85267,3.84652 1.85267,6.352 v 14.55667 h -0.26467 c -2.33659,-4.93116 -1.85267,-9.42445 -1.85267,-14.82134 0,-1.83968 -0.45012,-4.38391 0.26467,-6.08733 m -11.116,2.64667 -1.85267,9.26333 4.23467,-2.382 c 0.1291,1.56462 0.46449,2.32773 2.11733,2.382 -0.42789,-3.17764 -0.75837,-9.26044 -4.49933,-9.26333 m 1.32333,1.85266 0.52934,3.44067 h -1.32334 l 0.794,-3.44067 m 10.85134,17.468 H 94.169446 l 2.28622,-5.02131 3.801114,-0.27202 h 9.26334 l 4.06577,0.27202 z"
         id="path6655" />
      <path
         style="fill:#a83acd;fill-opacity:1"
         d="m 66.919338,199.98616 -0.50418,-0.55712 v -10.17573 -10.17573 l 1.75749,-1.70648 1.75749,-1.70649 8.69684,0.002 8.69684,0.002 1.85267,1.68346 1.85267,1.68346 v 10.19644 10.19644 l -0.50419,0.55712 -0.50419,0.55712 h -11.29862 -11.29863 z m 22.63525,-0.56771 -0.0189,-0.33084 -1.10593,-2.33243 -1.10593,-2.33244 -8.60166,0.008 -8.60167,0.008 -1.10593,2.32422 -1.10593,2.32422 -0.0189,0.33084 -0.0189,0.33083 h 10.85134 10.85133 z m -21.27418,-2.779 0.95494,-2.05117 -0.0327,-8.32709 -0.0327,-8.32708 -0.12415,-0.12416 -0.12416,-0.12416 -0.92237,0.894 -0.92237,0.89399 v 9.60842 9.60841 h 0.12432 0.12432 z m 22.08708,-7.47607 v -9.52724 l -0.9925,-1.0993 -0.9925,-1.09929 -0.13233,8.44303 -0.13234,8.44303 0.99029,2.1835 0.99028,2.1835 h 0.13455 0.13455 z m -3.22893,4.18097 0.3176,-0.3176 v -8.14242 -8.14243 l -0.51194,-0.27397 -0.51193,-0.27398 h -7.80342 -7.80342 l -0.41865,0.16065 -0.41864,0.16065 v 8.3969 8.39691 l 0.17644,0.17644 0.17645,0.17645 h 8.23995 8.23996 z m -10.41343,-4.56671 -0.64964,-0.64963 v -0.54137 -0.54136 h 0.73124 0.73124 l 0.26126,0.59395 0.26126,0.59396 0.47588,0.0896 0.47588,0.0896 0.38429,-0.31893 0.38428,-0.31892 v -0.63178 -0.63177 l -1.07575,-0.72532 -1.07575,-0.72532 -0.68067,-0.54671 -0.68067,-0.54672 v -1.15624 -1.15624 l 0.71251,-0.61288 0.71252,-0.61288 h 1.05594 1.05593 l 0.64964,0.64964 0.64964,0.64964 v 0.54136 0.54136 h -0.58556 -0.58556 l -0.54076,-0.67818 -0.54076,-0.67818 -0.44122,0.16931 -0.44122,0.16931 -0.15184,0.39571 -0.15185,0.39571 0.27257,0.5093 0.27256,0.50929 1.0248,0.52282 1.0248,0.52281 0.55435,0.70474 0.55435,0.70475 v 0.98433 0.98432 l -0.64902,0.70032 -0.64903,0.70031 h -1.34801 -1.348 z"
         id="path6658" />
      <path
         style="fill:#1e1e1e;stroke:none"
         d="m 96.138742,150.46559 c -6.1243,2.33954 -3.97,12.67195 -3.97,17.80088 0,1.73657 -0.64272,5.14395 0.66534,6.50189 1.13554,1.17885 3.93159,0.64411 5.42199,0.64411 h 12.174668 c 1.54765,0 3.82678,0.41918 5.27883,-0.1597 1.41497,-0.5641 1.33581,-2.28407 1.33784,-3.54564 v -10.322 c 0,-2.14188 0.69655,-5.80203 -0.46113,-7.67533 -3.04753,-4.93136 -9.6683,-3.44067 -14.62487,-3.44067 -1.74338,0 -4.176778,-0.43229 -5.822668,0.19646 m 0.56854,0.71231 c 3.373018,-1.09258 8.584258,-0.11477 12.135458,-0.11477 1.07506,0 3.24374,-0.40686 4.07497,0.42437 0.76101,0.76101 0.42436,2.56793 0.42436,3.54563 v 9.528 c 0,1.10747 0.41747,3.20777 -0.83321,3.77354 -1.08831,0.49233 -2.76184,0.19646 -3.93079,0.19646 h -8.46933 c -1.061598,0 -3.274218,0.4182 -3.962648,-0.61347 -0.59166,-0.88665 -0.27202,-2.6041 -0.27202,-3.62119 v -9.26334 c 0,-1.06424 -0.47657,-3.43097 0.83321,-3.85523 m 17.693458,1.20857 c 2.25203,2.30781 1.85267,4.63978 1.85267,7.67533 v 13.498 h -0.26467 l -1.92578,-4.49933 0.0731,-10.322 0.26467,-6.352 m -19.320668,0.26466 c 0,6.99158 1.16581,14.53844 -1.85266,20.90867 -0.63385,-1.51052 -0.26467,-3.66458 -0.26467,-5.29333 V 156.8858 c 7.4e-4,-1.92377 0.22688,-3.34503 2.11733,-4.23467 m 4.764,2.64667 c 0.413898,2.13426 0.434348,6.93448 1.849398,8.5741 1.852,2.14589 2.61144,-4.50388 2.64994,-5.3981 h 0.26466 l 1.05867,5.82267 h 1.85267 l 1.588,-9.26334 c -2.40381,0.18727 -2.29902,4.41915 -2.382,6.352 h -0.26467 c -0.0871,-1.10216 -0.36463,-6.18372 -1.85267,-6.18372 -1.45504,0 -1.76563,5.09004 -1.85266,6.18372 -0.58309,-1.84388 -0.0509,-6.84849 -2.911338,-6.08733 m 13.233338,13.76267 2.382,5.558 H 93.756732 l 2.382,-5.558 c 4.727028,1.12541 12.166618,0.88593 16.938668,0 z"
         id="path6656" />
      <path
         style="fill:#000000"
         d="m 118.56443,225.32756 -0.55751,-0.70877 0.0751,-10.02434 0.0751,-10.02434 1.75749,-1.70623 1.75749,-1.70623 8.69684,0.007 8.69685,0.007 1.85266,1.6839 1.85267,1.6839 v 10.1912 10.19121 l -0.50419,0.55712 -0.50418,0.55712 h -11.32044 -11.32044 z m 22.67861,-0.18921 0.15406,-0.15405 -1.16562,-2.52672 -1.16562,-2.52671 -8.60167,-0.002 -8.60167,-0.002 -1.10593,2.3267 -1.10593,2.32669 -0.0189,0.32765 -0.0189,0.32765 9.99116,0.0694 9.99117,0.0693 0.7469,-0.0411 0.7469,-0.0411 z m 0.86648,-10.35425 v -9.66422 l -0.90517,-0.98772 -0.90518,-0.98771 -0.13524,0.13524 -0.13525,0.13525 -0.049,8.33319 -0.049,8.33319 0.995,2.1835 0.995,2.1835 h 0.0944 0.0944 z m -22.08708,7.34839 0.95494,-2.05117 -0.0327,-8.32709 -0.0327,-8.32708 -0.12415,-0.12416 -0.12416,-0.12416 -0.92237,0.894 -0.92236,0.89399 v 9.60842 9.60841 h 0.12431 0.12432 z m 18.85815,-3.2951 0.3176,-0.3176 v -8.14243 -8.14242 l -0.51193,-0.27398 -0.51194,-0.27398 -7.89123,0.004 -7.89123,0.004 -0.397,0.2507 -0.397,0.2507 -0.0828,7.75674 -0.0828,7.75674 0.2747,0.72251 0.27469,0.72251 h 8.29062 8.29062 z m -11.32773,-8.4164 v -4.49934 h 1.81697 1.81697 l 0.71713,0.56409 0.71712,0.56409 0.25961,0.68282 0.2596,0.68281 v 1.9024 1.90241 l -0.38374,0.91844 -0.38375,0.91843 -0.61618,0.43159 -0.61618,0.43159 h -1.79378 -1.79377 z m 3.62923,2.382 0.33296,-0.66167 v -1.72033 -1.72034 l -0.33296,-0.66166 -0.33297,-0.66167 -0.85413,-0.0829 -0.85413,-0.0829 v 3.20954 3.20953 l 0.85413,-0.0829 0.85413,-0.0829 z"
         id="path6659" />
      <path
         style="fill:#a83acd;fill-opacity:1"
         d="m 66.919338,199.98616 -0.50418,-0.55712 v -10.17573 -10.17573 l 1.75749,-1.70648 1.75749,-1.70649 8.69684,0.002 8.69684,0.002 1.85267,1.68346 1.85267,1.68346 v 10.19644 10.19644 l -0.50419,0.55712 -0.50419,0.55712 h -11.29862 -11.29863 z m 22.63525,-0.56771 -0.0189,-0.33084 -1.10593,-2.33243 -1.10593,-2.33244 -8.60166,0.008 -8.60167,0.008 -1.10593,2.32422 -1.10593,2.32422 -0.0189,0.33084 -0.0189,0.33083 h 10.85134 10.85133 z m -21.27418,-2.779 0.95494,-2.05117 -0.0327,-8.32709 -0.0327,-8.32708 -0.12415,-0.12416 -0.12416,-0.12416 -0.92237,0.894 -0.92237,0.89399 v 9.60842 9.60841 h 0.12432 0.12432 z m 22.08708,-7.47607 v -9.52724 l -0.9925,-1.0993 -0.9925,-1.09929 -0.13233,8.44303 -0.13234,8.44303 0.99029,2.1835 0.99028,2.1835 h 0.13455 0.13455 z m -3.22893,4.18097 0.3176,-0.3176 v -8.14242 -8.14243 l -0.51194,-0.27397 -0.51193,-0.27398 h -7.80342 -7.80342 l -0.41865,0.16065 -0.41864,0.16065 v 8.3969 8.39691 l 0.17644,0.17644 0.17645,0.17645 h 8.23995 8.23996 z m -10.41343,-4.56671 -0.64964,-0.64963 v -0.54137 -0.54136 h 0.73124 0.73124 l 0.26126,0.59395 0.26126,0.59396 0.47588,0.0896 0.47588,0.0896 0.38429,-0.31893 0.38428,-0.31892 v -0.63178 -0.63177 l -1.07575,-0.72532 -1.07575,-0.72532 -0.68067,-0.54671 -0.68067,-0.54672 v -1.15624 -1.15624 l 0.71251,-0.61288 0.71252,-0.61288 h 1.05594 1.05593 l 0.64964,0.64964 0.64964,0.64964 v 0.54136 0.54136 h -0.58556 -0.58556 l -0.54076,-0.67818 -0.54076,-0.67818 -0.44122,0.16931 -0.44122,0.16931 -0.15184,0.39571 -0.15185,0.39571 0.27257,0.5093 0.27256,0.50929 1.0248,0.52282 1.0248,0.52281 0.55435,0.70474 0.55435,0.70475 v 0.98433 0.98432 l -0.64902,0.70032 -0.64903,0.70031 h -1.34801 -1.348 z"
         id="path6660" />
      <g
         id="g6671"
         transform="translate(-65.228663,-24.812472)">
        <path
           style="fill:#a83acd;fill-opacity:1"
           d="m 184.12502,225.1403 -0.50418,-0.55712 v -10.17573 -10.17573 l 1.75749,-1.70648 1.75749,-1.70649 8.69684,0.002 8.69684,0.002 1.85267,1.68346 1.85267,1.68346 v 10.19644 10.19644 l -0.50419,0.55712 -0.50419,0.55712 h -11.29862 -11.29863 z m 22.63525,-0.56771 -0.0189,-0.33084 -1.10593,-2.33243 -1.10593,-2.33244 -8.60166,0.008 -8.60167,0.008 -1.10593,2.32422 -1.10593,2.32422 -0.0189,0.33084 -0.0189,0.33083 h 10.85134 10.85133 z m -21.27418,-2.779 0.95494,-2.05117 -0.0327,-8.32709 -0.0327,-8.32708 -0.12415,-0.12416 -0.12416,-0.12416 -0.92237,0.894 -0.92237,0.89399 v 9.60842 9.60841 h 0.12432 0.12432 z m 22.08708,-7.47607 v -9.52724 l -0.9925,-1.0993 -0.9925,-1.09929 -0.13233,8.44303 -0.13234,8.44303 0.99029,2.1835 0.99028,2.1835 h 0.13455 0.13455 z m -3.22893,4.18097 0.3176,-0.3176 v -8.14242 -8.14243 l -0.51194,-0.27397 -0.51193,-0.27398 h -7.80342 -7.80342 l -0.41865,0.16065 -0.41864,0.16065 v 8.3969 8.39691 l 0.17644,0.17644 0.17645,0.17645 h 8.23995 8.23996 z m -10.41343,-4.56671 -0.64964,-0.64963 v -0.54137 -0.54136 h 0.73124 0.73124 l 0.26126,0.59395 0.26126,0.59396 0.47588,0.0896 0.47588,0.0896 0.38429,-0.31893 0.38428,-0.31892 v -0.63178 -0.63177 l -1.07575,-0.72532 -1.07575,-0.72532 -0.68067,-0.54671 -0.68067,-0.54672 v -1.15624 -1.15624 l 0.71251,-0.61288 0.71252,-0.61288 h 1.05594 1.05593 l 0.64964,0.64964 0.64964,0.64964 v 0.54136 0.54136 h -0.58556 -0.58556 l -0.54076,-0.67818 -0.54076,-0.67818 -0.44122,0.16931 -0.44122,0.16931 -0.15184,0.39571 -0.15185,0.39571 0.27257,0.5093 0.27256,0.50929 1.0248,0.52282 1.0248,0.52281 0.55435,0.70474 0.55435,0.70475 v 0.98433 0.98432 l -0.64902,0.70032 -0.64903,0.70031 h -1.34801 -1.348 z"
           id="path6660-4"
           clip-path="url(#clipPath6671)" />
        <text
           xml:space="preserve"
           style="font-size:14.1111px;line-height:0%;font-family:Arial;-inkscape-font-specification:Arial;letter-spacing:1.32292px;opacity:1;fill:#a83acd;fill-opacity:1;stroke:#d800a9;stroke-width:0;stroke-miterlimit:0;stroke-dasharray:none;stroke-opacity:1"
           x="192.26776"
           y="215.13332"
           id="text6671"><tspan
             sodipodi:role="line"
             id="tspan6671"
             style="font-style:normal;font-variant:normal;font-weight:normal;font-stretch:normal;font-size:14.1111px;font-family:'Segoe UI';-inkscape-font-specification:'Segoe UI';stroke-width:0"
             x="192.26776"
             y="215.13332">L</tspan></text>
      </g>
    </g>
  </g>
</svg>
